<svg width="190" height="190" viewBox="0 0 190 190" fill="none" xmlns="http://www.w3.org/2000/svg">
<path d="M138.164 51.3181H138.243M55.2654 15.7903H134.216C156.018 15.7903 173.692 33.464 173.692 55.2657V134.216C173.692 156.018 156.018 173.692 134.216 173.692H55.2654C33.4638 173.692 15.79 156.018 15.79 134.216V55.2657C15.79 33.464 33.4638 15.7903 55.2654 15.7903ZM126.321 89.7672C127.296 96.3378 126.173 103.048 123.114 108.944C120.055 114.84 115.214 119.622 109.281 122.608C103.347 125.595 96.6234 126.634 90.0653 125.579C83.5071 124.523 77.4487 121.427 72.7518 116.73C68.0548 112.033 64.9585 105.975 63.9032 99.4167C62.8479 92.8585 63.8874 86.1346 66.8738 80.2013C69.8602 74.268 74.6414 69.4274 80.5375 66.3681C86.4335 63.3087 93.1441 62.1864 99.7147 63.1608C106.417 64.1546 112.622 67.2778 117.413 72.0688C122.204 76.8599 125.327 83.0649 126.321 89.7672Z" stroke="#EA579A" stroke-width="18.9482" stroke-linecap="round" stroke-linejoin="round"/>
</svg>
